<?xml version="1.0" encoding="utf-8"?>
<!-- Generator: Adobe Illustrator 21.0.2, SVG Export Plug-In . SVG Version: 6.00 Build 0)  -->
<svg version="1.1" id="Livello_1" focusable="false"
	 xmlns="http://www.w3.org/2000/svg" xmlns:xlink="http://www.w3.org/1999/xlink" x="0px" y="0px" viewBox="0 0 448 512"
	 style="enable-background:new 0 0 448 512;" xml:space="preserve">
<style type="text/css">
	.st0{fill:#FFFFFF;}
</style>
<g>
	<path class="st0" d="M363.4,242c0,8.8-7.2,16-16,16h-6.9c-8.8,0-16-7.2-16-16v-21c0-25.2-36.6-25.1-36.6,0v21c0,8.8-7.2,16-16,16
		h-6.9c-8.8,0-16-7.2-16-16v-35c0-25.2-36.6-25.1-36.6,0v35c0,8.8-7.2,16-16,16h-6.9c-8.8,0-16-7.2-16-16V67
		c0-25.2-36.6-25.1-36.6,0v241.5c0,15.6-20,21.9-29,9.3L81,279.7v0c-14.4-20.2-43.8,2.4-29.4,22.6l109.7,154
		c3.4,4.8,8.9,7.7,14.7,7.7h178.3c8.5,0,15.8-6,17.8-14.6l27.4-119c0.3-1.4,0.5-2.9,0.5-4.4v-84C400,216.8,363.4,216.9,363.4,242z
		 M210.1,400c0,8.8-6.3,16-14,16h-6c-7.7,0-14-7.2-14-16v-96c0-8.8,6.3-16,14-16h6c7.7,0,14,7.2,14,16V400z M285.6,400
		c0,8.8-6.3,16-14,16h-6c-7.7,0-14-7.2-14-16v-96c0-8.8,6.3-16,14-16h6c7.7,0,14,7.2,14,16V400z M361,400c0,8.8-6.3,16-14,16h-6
		c-7.7,0-14-7.2-14-16v-96c0-8.8,6.3-16,14-16h6c7.7,0,14,7.2,14,16V400z"/>
	<path d="M358.2,179.4c-19.5-24.8-52.7-31.9-79.9-19.1c-15.1-15.7-36.2-22.5-56.6-19.6V67c0-36.9-29.7-67-66.3-67
		c-36.6,0-66.3,30.1-66.3,67v161.1c-19.9-7.4-43.3-5.1-62.1,8.9c-29.4,21.8-35.8,63.3-14.5,93.2l109.7,154
		c12.4,17.4,32.5,27.8,53.8,27.8h178.3c30.8,0,57.6-21.5,64.6-51.8l27.4-119c1.1-5,1.7-10.1,1.7-15.2v-84
		C448,195.2,401.4,162.7,358.2,179.4z M400,326c0,1.5-0.2,3-0.5,4.4l-27.4,119c-2,8.6-9.3,14.6-17.8,14.6H176
		c-5.8,0-11.3-2.9-14.7-7.7l-109.7-154c-14.4-20.2,15-42.8,29.4-22.6v0l27.1,38.1c9,12.6,29,6.3,29-9.3V67c0-25.1,36.6-25.2,36.6,0
		v175c0,8.8,7.2,16,16,16h6.9c8.8,0,16-7.2,16-16v-35c0-25.1,36.6-25.2,36.6,0v35c0,8.8,7.2,16,16,16h6.9c8.8,0,16-7.2,16-16v-21
		c0-25.1,36.6-25.2,36.6,0v21c0,8.8,7.2,16,16,16h6.9c8.8,0,16-7.2,16-16c0-25.1,36.6-25.2,36.6,0V326z"/>
	<path d="M196.1,288h-6c-7.7,0-14,7.2-14,16v96c0,8.8,6.3,16,14,16h6c7.7,0,14-7.2,14-16v-96C210.1,295.2,203.9,288,196.1,288z"/>
	<path d="M347,288h-6c-7.7,0-14,7.2-14,16v96c0,8.8,6.3,16,14,16h6c7.7,0,14-7.2,14-16v-96C361,295.2,354.7,288,347,288z"/>
	<path d="M271.6,288h-6c-7.7,0-14,7.2-14,16v96c0,8.8,6.3,16,14,16h6c7.7,0,14-7.2,14-16v-96C285.6,295.2,279.3,288,271.6,288z"/>
</g>
</svg>
