<?xml version="1.0" encoding="utf-8"?>
<!-- Generator: Adobe Illustrator 21.0.2, SVG Export Plug-In . SVG Version: 6.00 Build 0)  -->
<svg version="1.1" id="Livello_1" focusable="false"
	 xmlns="http://www.w3.org/2000/svg" xmlns:xlink="http://www.w3.org/1999/xlink" x="0px" y="0px" viewBox="0 0 448 512"
	 style="enable-background:new 0 0 448 512;" xml:space="preserve">
<style type="text/css">
	.st0{fill:#FFFFFF;}
</style>
<path class="st0" d="M89.7,332.6c19.5,24.8,52.7,31.9,79.9,19.1c15.1,15.7,36.2,22.5,56.6,19.6V445c0,36.9,29.7,67,66.3,67
	s66.3-30.1,66.3-67V283.9c19.9,7.4,43.3,5.1,62.1-8.9c29.4-21.8,35.8-63.3,14.5-93.2l-109.7-154C313.3,10.4,293.2,0,271.9,0H93.6
	C62.8,0,36,21.5,29,51.8l-27.4,119c-1.1,5-1.7,10.1-1.7,15.2v84C-0.1,316.8,46.5,349.3,89.7,332.6z M382.2,240.2
	c0.6,0,1.1-0.1,1.7-0.2C383.3,240.1,382.7,240.1,382.2,240.2z"/>
</svg>
