<?xml version="1.0" encoding="utf-8"?>
<!-- Generator: Adobe Illustrator 21.0.2, SVG Export Plug-In . SVG Version: 6.00 Build 0)  -->
<svg version="1.1" id="Livello_1" focusable="false"
	 xmlns="http://www.w3.org/2000/svg" xmlns:xlink="http://www.w3.org/1999/xlink" x="0px" y="0px" viewBox="0 0 448 512"
	 style="enable-background:new 0 0 448 512;" xml:space="preserve">
<path d="M358.2,179.4c-19.5-24.8-52.7-31.9-79.9-19.1c-15.1-15.7-36.2-22.5-56.6-19.6V67c0-36.9-29.7-67-66.3-67
	c-36.6,0-66.3,30.1-66.3,67v161.1C69.2,220.7,45.8,223,27,237c-29.4,21.8-35.8,63.3-14.5,93.2l109.7,154
	c12.4,17.4,32.5,27.8,53.8,27.8h178.3c30.8,0,57.6-21.5,64.6-51.8l27.4-119c1.1-5,1.7-10.1,1.7-15.2v-84
	C448,195.2,401.4,162.7,358.2,179.4z M65.7,271.8c-0.6,0-1.1,0.1-1.7,0.2C64.6,271.9,65.2,271.9,65.7,271.8z"/>
</svg>
